<?xml version="1.0" encoding="UTF-8" standalone="no"?>
<!DOCTYPE svg PUBLIC "-//W3C//DTD SVG 1.1//EN"
 "http://www.w3.org/Graphics/SVG/1.1/DTD/svg11.dtd">
<!-- Generated by graphviz version 7.0.6 (20230106.0513)
 -->
<!-- Title: dependency&#45;cruiser output Pages: 1 -->
<svg width="277pt" height="260pt"
 viewBox="0.00 0.00 277.00 260.00" xmlns="http://www.w3.org/2000/svg" xmlns:xlink="http://www.w3.org/1999/xlink">
<g id="graph0" class="graph" transform="scale(1 1) rotate(0) translate(4 256)">
<title>dependency&#45;cruiser output</title>
<polygon fill="white" stroke="none" points="-4,4 -4,-256 273,-256 273,4 -4,4"/>
<g id="clust1" class="cluster">
<title>cluster_src</title>
<path fill="#ffffff" stroke="black" stroke-width="2" d="M20,-8C20,-8 249,-8 249,-8 255,-8 261,-14 261,-20 261,-20 261,-232 261,-232 261,-238 255,-244 249,-244 249,-244 20,-244 20,-244 14,-244 8,-238 8,-232 8,-232 8,-20 8,-20 8,-14 14,-8 20,-8"/>
<text text-anchor="middle" x="134.5" y="-232.8" font-family="Helvetica,sans-Serif" font-weight="bold" font-size="9.00">src</text>
</g>
<g id="clust2" class="cluster">
<title>cluster_src/components</title>
<path fill="#ffffff" stroke="black" stroke-width="2" d="M173,-16C173,-16 241,-16 241,-16 247,-16 253,-22 253,-28 253,-28 253,-146 253,-146 253,-152 247,-158 241,-158 241,-158 173,-158 173,-158 167,-158 161,-152 161,-146 161,-146 161,-28 161,-28 161,-22 167,-16 173,-16"/>
<text text-anchor="middle" x="207" y="-146.8" font-family="Helvetica,sans-Serif" font-weight="bold" font-size="9.00">components</text>
</g>
<g id="clust3" class="cluster">
<title>cluster_src/hooks</title>
<path fill="#ffffff" stroke="black" stroke-width="2" d="M181,-166C181,-166 233,-166 233,-166 239,-166 245,-172 245,-178 245,-178 245,-206 245,-206 245,-212 239,-218 233,-218 233,-218 181,-218 181,-218 175,-218 169,-212 169,-206 169,-206 169,-178 169,-178 169,-172 175,-166 181,-166"/>
<text text-anchor="middle" x="207" y="-206.8" font-family="Helvetica,sans-Serif" font-weight="bold" font-size="9.00">hooks</text>
</g>
<!-- src/App.jsx -->
<g id="node1" class="node">
<title>src/App.jsx</title>
<g id="a_node1"><a xlink:href="src/App.jsx" xlink:title="App.jsx">
<path fill="#ffff77" stroke="black" d="M146.5,-102C146.5,-102 104.5,-102 104.5,-102 101.5,-102 98.5,-99 98.5,-96 98.5,-96 98.5,-90 98.5,-90 98.5,-87 101.5,-84 104.5,-84 104.5,-84 146.5,-84 146.5,-84 149.5,-84 152.5,-87 152.5,-90 152.5,-90 152.5,-96 152.5,-96 152.5,-99 149.5,-102 146.5,-102"/>
<text text-anchor="start" x="110" y="-90.8" font-family="Helvetica,sans-Serif" font-size="9.00">App.jsx</text>
</a>
</g>
</g>
<!-- src/components/JokeButton.jsx -->
<g id="node2" class="node">
<title>src/components/JokeButton.jsx</title>
<g id="a_node2"><a xlink:href="src/components/JokeButton.jsx" xlink:title="JokeButton.jsx">
<path fill="#ffff77" stroke="black" d="M239,-132C239,-132 175,-132 175,-132 172,-132 169,-129 169,-126 169,-126 169,-120 169,-120 169,-117 172,-114 175,-114 175,-114 239,-114 239,-114 242,-114 245,-117 245,-120 245,-120 245,-126 245,-126 245,-129 242,-132 239,-132"/>
<text text-anchor="start" x="177" y="-120.8" font-family="Helvetica,sans-Serif" font-size="9.00">JokeButton.jsx</text>
</a>
</g>
</g>
<!-- src/App.jsx&#45;&gt;src/components/JokeButton.jsx -->
<g id="edge1" class="edge">
<title>src/App.jsx&#45;&gt;src/components/JokeButton.jsx</title>
<path fill="none" stroke="#000000" stroke-width="2" stroke-opacity="0.200000" d="M147.18,-102.34C151.7,-104.29 156.49,-106.27 161,-108 163.31,-108.88 165.69,-109.77 168.1,-110.64"/>
<polygon fill="#000000" fill-opacity="0.200000" stroke="#000000" stroke-width="2" stroke-opacity="0.200000" points="167.12,-112.52 173.48,-112.52 168.51,-108.56 167.12,-112.52"/>
</g>
<!-- src/components/JokeList.jsx -->
<g id="node3" class="node">
<title>src/components/JokeList.jsx</title>
<g id="a_node3"><a xlink:href="src/components/JokeList.jsx" xlink:title="JokeList.jsx">
<path fill="#ffff77" stroke="black" d="M233,-102C233,-102 181,-102 181,-102 178,-102 175,-99 175,-96 175,-96 175,-90 175,-90 175,-87 178,-84 181,-84 181,-84 233,-84 233,-84 236,-84 239,-87 239,-90 239,-90 239,-96 239,-96 239,-99 236,-102 233,-102"/>
<text text-anchor="start" x="183" y="-90.8" font-family="Helvetica,sans-Serif" font-size="9.00">JokeList.jsx</text>
</a>
</g>
</g>
<!-- src/App.jsx&#45;&gt;src/components/JokeList.jsx -->
<g id="edge2" class="edge">
<title>src/App.jsx&#45;&gt;src/components/JokeList.jsx</title>
<path fill="none" stroke="#000000" stroke-width="2" stroke-opacity="0.200000" d="M152.97,-93C157.1,-93 161.45,-93 165.8,-93"/>
<polygon fill="#000000" fill-opacity="0.200000" stroke="#000000" stroke-width="2" stroke-opacity="0.200000" points="165.65,-95.1 171.65,-93 165.65,-90.9 165.65,-95.1"/>
</g>
<!-- src/components/JokeText.jsx -->
<g id="node4" class="node">
<title>src/components/JokeText.jsx</title>
<g id="a_node4"><a xlink:href="src/components/JokeText.jsx" xlink:title="JokeText.jsx">
<path fill="#ffff77" stroke="black" d="M234,-72C234,-72 180,-72 180,-72 177,-72 174,-69 174,-66 174,-66 174,-60 174,-60 174,-57 177,-54 180,-54 180,-54 234,-54 234,-54 237,-54 240,-57 240,-60 240,-60 240,-66 240,-66 240,-69 237,-72 234,-72"/>
<text text-anchor="start" x="182" y="-60.8" font-family="Helvetica,sans-Serif" font-size="9.00">JokeText.jsx</text>
</a>
</g>
</g>
<!-- src/App.jsx&#45;&gt;src/components/JokeText.jsx -->
<g id="edge3" class="edge">
<title>src/App.jsx&#45;&gt;src/components/JokeText.jsx</title>
<path fill="none" stroke="#000000" stroke-width="2" stroke-opacity="0.200000" d="M147.18,-83.66C151.7,-81.71 156.49,-79.73 161,-78 163.31,-77.12 165.69,-76.23 168.1,-75.36"/>
<polygon fill="#000000" fill-opacity="0.200000" stroke="#000000" stroke-width="2" stroke-opacity="0.200000" points="168.51,-77.44 173.48,-73.48 167.12,-73.48 168.51,-77.44"/>
</g>
<!-- src/components/JokeVote.jsx -->
<g id="node5" class="node">
<title>src/components/JokeVote.jsx</title>
<g id="a_node5"><a xlink:href="src/components/JokeVote.jsx" xlink:title="JokeVote.jsx">
<path fill="#ffff77" stroke="black" d="M235,-42C235,-42 179,-42 179,-42 176,-42 173,-39 173,-36 173,-36 173,-30 173,-30 173,-27 176,-24 179,-24 179,-24 235,-24 235,-24 238,-24 241,-27 241,-30 241,-30 241,-36 241,-36 241,-39 238,-42 235,-42"/>
<text text-anchor="start" x="181" y="-30.8" font-family="Helvetica,sans-Serif" font-size="9.00">JokeVote.jsx</text>
</a>
</g>
</g>
<!-- src/App.jsx&#45;&gt;src/components/JokeVote.jsx -->
<g id="edge4" class="edge">
<title>src/App.jsx&#45;&gt;src/components/JokeVote.jsx</title>
<path fill="none" stroke="#000000" stroke-width="2" stroke-opacity="0.200000" d="M147.22,-83.56C149.39,-81.94 151.38,-80.09 153,-78 161.44,-67.08 151.55,-58.05 161,-48 162.23,-46.7 163.57,-45.5 165,-44.42"/>
<polygon fill="#000000" fill-opacity="0.200000" stroke="#000000" stroke-width="2" stroke-opacity="0.200000" points="166.08,-46.22 170.16,-41.35 163.93,-42.61 166.08,-46.22"/>
</g>
<!-- src/hooks/useJoke.js -->
<g id="node6" class="node">
<title>src/hooks/useJoke.js</title>
<g id="a_node6"><a xlink:href="src/hooks/useJoke.js" xlink:title="useJoke.js">
<path fill="#ffffcc" stroke="black" d="M231,-192C231,-192 183,-192 183,-192 180,-192 177,-189 177,-186 177,-186 177,-180 177,-180 177,-177 180,-174 183,-174 183,-174 231,-174 231,-174 234,-174 237,-177 237,-180 237,-180 237,-186 237,-186 237,-189 234,-192 231,-192"/>
<text text-anchor="start" x="185" y="-180.8" font-family="Helvetica,sans-Serif" font-size="9.00">useJoke.js</text>
</a>
</g>
</g>
<!-- src/App.jsx&#45;&gt;src/hooks/useJoke.js -->
<g id="edge5" class="edge">
<title>src/App.jsx&#45;&gt;src/hooks/useJoke.js</title>
<path fill="none" stroke="#000000" stroke-width="2" stroke-opacity="0.200000" d="M129.03,-102.05C133.42,-116.25 143.65,-143.9 161,-161 164.25,-164.2 168.05,-167.01 172.04,-169.46"/>
<polygon fill="#000000" fill-opacity="0.200000" stroke="#000000" stroke-width="2" stroke-opacity="0.200000" points="170.94,-171.25 177.21,-172.28 172.95,-167.56 170.94,-171.25"/>
</g>
<!-- src/App.test.jsx -->
<g id="node7" class="node">
<title>src/App.test.jsx</title>
<g id="a_node7"><a xlink:href="src/App.test.jsx" xlink:title="App.test.jsx">
<path fill="#ffff77" stroke="black" d="M76,-102C76,-102 25,-102 25,-102 22,-102 19,-99 19,-96 19,-96 19,-90 19,-90 19,-87 22,-84 25,-84 25,-84 76,-84 76,-84 79,-84 82,-87 82,-90 82,-90 82,-96 82,-96 82,-99 79,-102 76,-102"/>
<text text-anchor="start" x="27" y="-90.8" font-family="Helvetica,sans-Serif" font-size="9.00">App.test.jsx</text>
</a>
</g>
</g>
<!-- src/App.test.jsx&#45;&gt;src/App.jsx -->
<g id="edge6" class="edge">
<title>src/App.test.jsx&#45;&gt;src/App.jsx</title>
<path fill="none" stroke="#000000" stroke-width="2" stroke-opacity="0.200000" d="M82.46,-93C84.77,-93 87.11,-93 89.45,-93"/>
<polygon fill="#000000" fill-opacity="0.200000" stroke="#000000" stroke-width="2" stroke-opacity="0.200000" points="89.31,-95.1 95.31,-93 89.31,-90.9 89.31,-95.1"/>
</g>
<!-- src/index.css -->
<g id="node8" class="node">
<title>src/index.css</title>
<g id="a_node8"><a xlink:href="src/index.css" xlink:title="index.css">
<path fill="#ffffcc" stroke="black" d="M147,-72C147,-72 104,-72 104,-72 101,-72 98,-69 98,-66 98,-66 98,-60 98,-60 98,-57 101,-54 104,-54 104,-54 147,-54 147,-54 150,-54 153,-57 153,-60 153,-60 153,-66 153,-66 153,-69 150,-72 147,-72"/>
<text text-anchor="start" x="106" y="-60.8" font-family="Helvetica,sans-Serif" font-size="9.00">index.css</text>
</a>
</g>
</g>
<!-- src/main.jsx -->
<g id="node9" class="node">
<title>src/main.jsx</title>
<g id="a_node9"><a xlink:href="src/main.jsx" xlink:title="main.jsx">
<path fill="#ffff77" stroke="black" d="M71.5,-72C71.5,-72 29.5,-72 29.5,-72 26.5,-72 23.5,-69 23.5,-66 23.5,-66 23.5,-60 23.5,-60 23.5,-57 26.5,-54 29.5,-54 29.5,-54 71.5,-54 71.5,-54 74.5,-54 77.5,-57 77.5,-60 77.5,-60 77.5,-66 77.5,-66 77.5,-69 74.5,-72 71.5,-72"/>
<text text-anchor="start" x="33.5" y="-60.8" font-family="Helvetica,sans-Serif" font-size="9.00">main.jsx</text>
</a>
</g>
</g>
<!-- src/main.jsx&#45;&gt;src/App.jsx -->
<g id="edge7" class="edge">
<title>src/main.jsx&#45;&gt;src/App.jsx</title>
<path fill="none" stroke="#000000" stroke-width="2" stroke-opacity="0.200000" d="M74.6,-72.49C80.51,-74.92 86.97,-77.58 93.23,-80.15"/>
<polygon fill="#000000" fill-opacity="0.200000" stroke="#000000" stroke-width="2" stroke-opacity="0.200000" points="92.4,-82.08 98.75,-82.42 94,-78.2 92.4,-82.08"/>
</g>
<!-- src/main.jsx&#45;&gt;src/index.css -->
<g id="edge8" class="edge">
<title>src/main.jsx&#45;&gt;src/index.css</title>
<path fill="none" stroke="#000000" stroke-width="2" stroke-opacity="0.200000" d="M77.85,-63C81.53,-63 85.35,-63 89.16,-63"/>
<polygon fill="#000000" fill-opacity="0.200000" stroke="#000000" stroke-width="2" stroke-opacity="0.200000" points="88.91,-65.1 94.91,-63 88.91,-60.9 88.91,-65.1"/>
</g>
<!-- src/setupTests.js -->
<g id="node10" class="node">
<title>src/setupTests.js</title>
<g id="a_node10"><a xlink:href="src/setupTests.js" xlink:title="setupTests.js">
<path fill="#ccffcc" stroke="black" d="M79,-38C79,-38 22,-38 22,-38 19,-38 16,-35 16,-32 16,-32 16,-26 16,-26 16,-23 19,-20 22,-20 22,-20 79,-20 79,-20 82,-20 85,-23 85,-26 85,-26 85,-32 85,-32 85,-35 82,-38 79,-38"/>
<text text-anchor="start" x="24" y="-26.8" font-family="Helvetica,sans-Serif" font-size="9.00">setupTests.js</text>
</a>
</g>
</g>
</g>
</svg>
